<svg xmlns="http://www.w3.org/2000/svg" width="30.632" height="51.709" viewBox="0 0 30.632 51.709">
  <path id="Path_65" data-name="Path 65" d="M21.149,24.378c-6.143-1.6-8.118-3.247-8.118-5.818,0-2.95,2.733-5.006,7.306-5.006,4.817,0,6.6,2.3,6.765,5.683h5.98A10.787,10.787,0,0,0,24.4,8.926V3H16.278V8.845c-5.25,1.137-9.471,4.546-9.471,9.769,0,6.251,5.169,9.363,12.718,11.176,6.765,1.624,8.118,4,8.118,6.522,0,1.867-1.326,4.844-7.306,4.844-5.574,0-7.766-2.49-8.064-5.683H6.32c.325,5.926,4.763,9.255,9.958,10.364v5.872H24.4V45.891c5.277-1,9.471-4.059,9.471-9.606C33.868,28.6,27.292,25.974,21.149,24.378Z" transform="translate(-4.736 -1.5)" fill="none" stroke="#e84f5b" stroke-width="3"/>
</svg>
