<svg id="_1" data-name="1" xmlns="http://www.w3.org/2000/svg" width="39.703" height="39.703" viewBox="0 0 39.703 39.703">
  <g id="Group_308" data-name="Group 308" transform="translate(0 0)">
    <path id="Path_51" data-name="Path 51" d="M0,0H39.7V39.7H0Z" fill="none"/>
    <path id="Path_52" data-name="Path 52" d="M14,11h6.617v4.963H14Z" transform="translate(9.16 7.197)" fill="none"/>
    <path id="Path_53" data-name="Path 53" d="M30.468,26.814V16.888A3.318,3.318,0,0,0,27.16,13.58H8.963V10.271L4,15.234,8.963,20.2V16.888H15.58v4.963H4v4.963a3.318,3.318,0,0,0,3.309,3.309h3.309a4.963,4.963,0,1,0,9.926,0H33.777V26.814ZM15.58,31.777a1.654,1.654,0,1,1,1.654-1.654A1.659,1.659,0,0,1,15.58,31.777Zm11.58-9.926H20.543V16.888H27.16ZM25.506,2V5.309H12.271V8.617H25.506v3.309l4.963-4.963Z" transform="translate(2.617 1.309)" fill="none" stroke="#e84f5b" stroke-width="1"/>
  </g>
</svg>
