<svg id="_11" data-name="11" xmlns="http://www.w3.org/2000/svg" width="39.913" height="39.913" viewBox="0 0 39.913 39.913">
  <path id="Path_49" data-name="Path 49" d="M0,0H39.913V39.913H0Z" transform="translate(0 0)" fill="none"/>
  <path id="Path_50" data-name="Path 50" d="M18.63,9.652V3H2V32.935H35.261V9.652ZM8.652,29.608H5.326V26.282H8.652Zm0-6.652H5.326V19.63H8.652Zm0-6.652H5.326V12.978H8.652Zm0-6.652H5.326V6.326H8.652ZM15.3,29.608H11.978V26.282H15.3Zm0-6.652H11.978V19.63H15.3Zm0-6.652H11.978V12.978H15.3Zm0-6.652H11.978V6.326H15.3Zm16.63,19.956H18.63V26.282h3.326V22.956H18.63V19.63h3.326V16.3H18.63V12.978h13.3ZM28.608,16.3H25.282V19.63h3.326Zm0,6.652H25.282v3.326h3.326Z" transform="translate(1.326 1.989)" fill="none" stroke="#e84f5b" stroke-width="1"/>
</svg>
