<svg id="_111" data-name="111" xmlns="http://www.w3.org/2000/svg" width="39.913" height="39.913" viewBox="0 0 39.913 39.913">
  <path id="Path_47" data-name="Path 47" d="M0,0H39.913V39.913H0Z" transform="translate(0 0)" fill="none"/>
  <path id="Path_48" data-name="Path 48" d="M32.6,10.652H27.608V4H4.326A3.336,3.336,0,0,0,1,7.326V25.619H4.326a4.989,4.989,0,0,0,9.978,0h9.978a4.989,4.989,0,0,0,9.978,0h3.326V17.3ZM9.315,28.114a2.495,2.495,0,1,1,2.495-2.495A2.491,2.491,0,0,1,9.315,28.114ZM31.766,13.147l3.26,4.158H27.608V13.147ZM29.271,28.114a2.495,2.495,0,1,1,2.495-2.495A2.491,2.491,0,0,1,29.271,28.114Z" transform="translate(0.663 2.652)" fill="none" stroke="#e84f5b" stroke-width="1"/>
</svg>
