<svg xmlns="http://www.w3.org/2000/svg" width="39" height="40" viewBox="0 0 39 40">
  <g id="_1111" data-name="1111" transform="translate(-0.012 -0.337)">
    <g id="Group_148" data-name="Group 148" transform="translate(0 0)">
      <rect id="Rectangle_171" data-name="Rectangle 171" width="39" height="40" transform="translate(0.012 0.337)" fill="none"/>
    </g>
    <g id="Group_150" data-name="Group 150" transform="translate(1.348 5.685)">
      <g id="Group_149" data-name="Group 149">
        <path id="Path_42" data-name="Path 42" d="M13.878,15C9.58,15,1,17.157,1,21.439v3.219H26.756V21.439C26.756,17.157,18.176,15,13.878,15Z" transform="translate(-1 4.317)" fill="none" stroke="#e84f5b" stroke-width="1"/>
        <path id="Path_43" data-name="Path 43" d="M25.754,9.181c.016-.177.032-.354.032-.547a3.01,3.01,0,0,0-.048-.547l1.191-.934a.274.274,0,0,0,.064-.354L25.867,4.851a.292.292,0,0,0-.338-.129l-1.384.563a4.286,4.286,0,0,0-.95-.547l-.209-1.5A.293.293,0,0,0,22.7,3H20.442a.265.265,0,0,0-.274.241l-.209,1.5a5.028,5.028,0,0,0-.95.547l-1.4-.563a.267.267,0,0,0-.338.129L16.144,6.8a.27.27,0,0,0,.064.354l1.191.934a3.125,3.125,0,0,0,0,1.095l-1.191.934a.274.274,0,0,0-.064.354l1.127,1.948a.292.292,0,0,0,.338.129l1.4-.563a4.285,4.285,0,0,0,.95.547l.209,1.5a.265.265,0,0,0,.274.241H22.7a.265.265,0,0,0,.274-.241l.209-1.5a5.028,5.028,0,0,0,.95-.547l1.4.563a.267.267,0,0,0,.338-.129l1.127-1.948a.27.27,0,0,0-.064-.354Zm-4.185,1.465a2.012,2.012,0,1,1,2.012-2.012A2.013,2.013,0,0,1,21.569,10.646Z" transform="translate(8.211 -3)" fill="none" stroke="#e84f5b" stroke-width="1"/>
        <path id="Path_44" data-name="Path 44" d="M22.869,12.7l-.8-1.4a.2.2,0,0,0-.241-.1l-1,.4a2.825,2.825,0,0,0-.676-.386L20,10.161A.242.242,0,0,0,19.778,10h-1.61a.192.192,0,0,0-.193.177l-.145,1.062a3.5,3.5,0,0,0-.676.386l-1-.4a.19.19,0,0,0-.241.1l-.8,1.4a.2.2,0,0,0,.048.258l.853.66a3.126,3.126,0,0,0-.032.386,2.884,2.884,0,0,0,.032.386l-.853.66a.2.2,0,0,0-.048.258l.8,1.4a.2.2,0,0,0,.241.1l1-.4a2.825,2.825,0,0,0,.676.386l.145,1.062a.192.192,0,0,0,.193.177h1.61a.182.182,0,0,0,.193-.177l.145-1.062a3.5,3.5,0,0,0,.676-.386l1,.4a.19.19,0,0,0,.241-.1l.8-1.4a.2.2,0,0,0-.048-.258l-.837-.66a3.126,3.126,0,0,0,.032-.386,2.884,2.884,0,0,0-.032-.386l.853-.66A.247.247,0,0,0,22.869,12.7Zm-3.9,2.656a1.336,1.336,0,1,1,1.336-1.336A1.343,1.343,0,0,1,18.974,15.36Z" transform="translate(7.587 1.268)" fill="none" stroke="#e84f5b" stroke-width="1"/>
        <path id="Path_45" data-name="Path 45" d="M5.039,12.049H18.77a.79.79,0,0,0,.789-.789v-.032a.79.79,0,0,0-.789-.789h-.435a6.434,6.434,0,0,0-3.219-5.554V6.415a.8.8,0,0,1-1.61,0V4.225A6.585,6.585,0,0,0,11.9,4a6.585,6.585,0,0,0-1.61.225V6.415a.8.8,0,0,1-1.61,0V4.885a6.434,6.434,0,0,0-3.219,5.554H5.039a.79.79,0,0,0-.789.789v.048A.787.787,0,0,0,5.039,12.049Z" transform="translate(0.982 -2.39)" fill="none" stroke="#e84f5b" stroke-width="1"/>
        <path id="Path_46" data-name="Path 46" d="M11.354,14.829A6.439,6.439,0,0,0,17.567,10H5.14A6.439,6.439,0,0,0,11.354,14.829Z" transform="translate(1.524 1.268)" fill="none" stroke="#e84f5b" stroke-width="1"/>
      </g>
    </g>
  </g>
</svg>
