<svg xmlns="http://www.w3.org/2000/svg" width="39" height="40" viewBox="0 0 39 40">
  <g id="_11111" data-name="11111" transform="translate(0 -0.337)">
    <g id="Group_139" data-name="Group 139" transform="translate(0 0)">
      <rect id="Rectangle_164" data-name="Rectangle 164" width="39" height="40" transform="translate(0 0.337)" fill="none"/>
    </g>
    <g id="Group_141" data-name="Group 141" transform="translate(1.651 5.69)">
      <g id="Group_140" data-name="Group 140">
        <path id="Path_34" data-name="Path 34" d="M25.918,18.087a7.434,7.434,0,0,1,4.158,1.264V11.434A3.336,3.336,0,0,0,26.75,8.108H16.289L14.526,6.346,16.871,4,15.69,2.82,9.82,8.69,11,9.871l2.345-2.345,1.763,1.763V13.1a3.336,3.336,0,0,1-3.326,3.326h-.9a9.944,9.944,0,0,1,2.561,6.652,11.039,11.039,0,0,1-.15,1.663h5.222A7.457,7.457,0,0,1,25.918,18.087Z" transform="translate(4.848 -2.82)" fill="none" stroke="#e84f5b" stroke-width="1"/>
        <path id="Path_35" data-name="Path 35" d="M21.821,13a5.821,5.821,0,1,0,5.821,5.821A5.827,5.827,0,0,0,21.821,13Zm0,8.315a2.495,2.495,0,1,1,2.495-2.495A2.491,2.491,0,0,1,21.821,21.315Z" transform="translate(8.945 3.93)" fill="none" stroke="#e84f5b" stroke-width="1"/>
        <path id="Path_36" data-name="Path 36" d="M4.663,10.326h8.315A3.336,3.336,0,0,0,9.652,7H4.663a1.663,1.663,0,0,0,0,3.326Z" transform="translate(0.326 -0.049)" fill="none" stroke="#e84f5b" stroke-width="1"/>
        <path id="Path_37" data-name="Path 37" d="M15.685,16.353l-.3-.782,1.547-.582a8.181,8.181,0,0,0-3.842-4.041l-.665,1.48-.765-.349.665-1.5A8.153,8.153,0,0,0,9.315,10a8.483,8.483,0,0,0-2.528.432l.565,1.513-.782.3L5.989,10.7A8.181,8.181,0,0,0,1.948,14.54l1.48.665-.349.765-1.5-.665A8.153,8.153,0,0,0,1,18.315a8.482,8.482,0,0,0,.432,2.528l1.513-.565.3.782L1.7,21.641A8.181,8.181,0,0,0,5.54,25.682l.665-1.48.765.349-.665,1.5a8.153,8.153,0,0,0,3.01.582,8.482,8.482,0,0,0,2.528-.432l-.565-1.513.782-.3.582,1.547a8.181,8.181,0,0,0,4.041-3.842l-1.48-.665.349-.765,1.5.665a8.153,8.153,0,0,0,.582-3.01,8.483,8.483,0,0,0-.432-2.528Zm-4.457,6.569A4.988,4.988,0,1,1,13.922,16.4,4.992,4.992,0,0,1,11.228,22.922Z" transform="translate(-1 1.941)" fill="none" stroke="#e84f5b" stroke-width="1"/>
      </g>
    </g>
  </g>
</svg>
