<svg id="_33" data-name="33" xmlns="http://www.w3.org/2000/svg" width="40.731" height="36.381" viewBox="0 0 40.731 36.381">
  <g id="Group_286" data-name="Group 286">
    <rect id="Rectangle_263" data-name="Rectangle 263" width="25.143" height="25.143" fill="none"/>
  </g>
  <g id="Group_288" data-name="Group 288" transform="translate(1.516 4.212)">
    <g id="Group_287" data-name="Group 287">
      <path id="Path_161" data-name="Path 161" d="M16.4,4V6.731a14.016,14.016,0,0,0-5.166-.99A13.8,13.8,0,0,0,1.44,9.8L8.031,16.39h2.2v2.2a9.253,9.253,0,0,0,6.156,2.692v4.493H10.466V31.71a3.97,3.97,0,0,0,3.959,3.959H34.217a5.93,5.93,0,0,0,5.938-5.938V4Zm-2.2,12.687V12.432H9.694L7.635,10.373a10.035,10.035,0,0,1,3.6-.673,9.884,9.884,0,0,1,7.007,2.89l2.791,2.791-.4.4a5.346,5.346,0,0,1-3.8,1.583A5.48,5.48,0,0,1,14.206,16.687ZM36.2,29.731a1.979,1.979,0,1,1-3.959,0V25.772H20.362V20.646a9.221,9.221,0,0,0,3.088-2.039l.4-.4,5.6,5.582h2.791V21L20.362,9.186V7.959H36.2Z" transform="translate(-1.44 -4)" fill="none" stroke="#e84f5b" stroke-width="1"/>
    </g>
  </g>
</svg>
