<svg id="_333" data-name="333" xmlns="http://www.w3.org/2000/svg" width="40.492" height="40.492" viewBox="0 0 40.492 40.492">
  <path id="Path_162" data-name="Path 162" d="M0,0H40.492V40.492H0Z" fill="none"/>
  <path id="Path_163" data-name="Path 163" d="M32.525,8.749a57.363,57.363,0,0,1-14.341,1.687A57.363,57.363,0,0,1,3.844,8.749L3,12.123A59.807,59.807,0,0,0,13.123,13.81V35.743H16.5V25.62h3.374V35.743h3.374V13.81a59.807,59.807,0,0,0,10.123-1.687Zm-14.341,0A3.374,3.374,0,1,0,14.81,5.374,3.384,3.384,0,0,0,18.184,8.749Z" transform="translate(2.061 1.374)" fill="none" stroke="#e84f5b" stroke-width="1"/>
</svg>
