<svg xmlns="http://www.w3.org/2000/svg" width="41" height="41" viewBox="0 0 41 41">
  <g id="_3333" data-name="3333" transform="translate(0 -0.004)">
    <rect id="Rectangle_262" data-name="Rectangle 262" width="41" height="41" transform="translate(0 0.003)" fill="none"/>
    <path id="Path_160" data-name="Path 160" d="M17.184,22.246H13.81A15.186,15.186,0,0,1,28.994,7.061v3.374A11.8,11.8,0,0,0,17.184,22.246Zm11.81-5.061V13.81a8.439,8.439,0,0,0-8.436,8.436h3.374A5.055,5.055,0,0,1,28.994,17.184ZM10.436,5.374A3.374,3.374,0,1,0,7.061,8.749,3.363,3.363,0,0,0,10.436,5.374Zm7.508.844H14.569a5.044,5.044,0,0,1-4.977,4.218H4.531A2.527,2.527,0,0,0,2,12.967v4.218H12.123V13.371A8.385,8.385,0,0,0,17.944,6.218ZM30.682,27.307a3.374,3.374,0,1,0-3.374-3.374A3.363,3.363,0,0,0,30.682,27.307Zm2.531,1.687H28.151a5.044,5.044,0,0,1-4.977-4.218H19.8A8.385,8.385,0,0,0,25.62,31.93v3.813H35.743V31.525A2.527,2.527,0,0,0,33.212,28.994Z" transform="translate(1.374 0.944)" fill="none" stroke="#e84f5b" stroke-width="1"/>
  </g>
</svg>
