<svg id="agriculture-24px" xmlns="http://www.w3.org/2000/svg" width="72" height="72" viewBox="0 0 72 72">
  <g id="Group_139" data-name="Group 139">
    <rect id="Rectangle_164" data-name="Rectangle 164" width="72" height="72" fill="none"/>
  </g>
  <g id="Group_141" data-name="Group 141" transform="translate(3 8.46)">
    <g id="Group_140" data-name="Group 140">
      <g id="Path_34" data-name="Path 34" transform="translate(16.64 -2.82)" fill="none">
        <path d="M38.86,30.36a13.411,13.411,0,0,1,7.5,2.28V18.36a6.018,6.018,0,0,0-6-6H21.49L18.31,9.18l4.23-4.23L20.41,2.82,9.82,13.41l2.13,2.13,4.23-4.23,3.18,3.18v6.87a6.018,6.018,0,0,1-6,6H11.74a17.938,17.938,0,0,1,4.62,12,19.914,19.914,0,0,1-.27,3h9.42A13.453,13.453,0,0,1,38.86,30.36Z" stroke="none"/>
        <path d="M 25.51000022888184 42.36000061035156 C 26.26000022888184 35.61000061035156 31.93000030517578 30.36000061035156 38.86000061035156 30.36000061035156 C 41.65000915527344 30.36000061035156 44.20000076293945 31.20000076293945 46.36000061035156 32.63999938964844 L 46.36000061035156 18.36000061035156 C 46.36000061035156 15.0600004196167 43.66001129150391 12.36000061035156 40.36000061035156 12.36000061035156 L 21.48999977111816 12.36000061035156 L 18.30999946594238 9.180000305175781 L 22.54000091552734 4.950000286102295 L 20.40999984741211 2.820000171661377 L 9.819999694824219 13.40999984741211 L 11.94999980926514 15.53999996185303 L 16.18000030517578 11.3100004196167 L 19.36000061035156 14.48999977111816 L 19.36000061035156 21.36000061035156 C 19.36000061035156 24.65999984741211 16.65999984741211 27.36000061035156 13.36000061035156 27.36000061035156 L 11.73999977111816 27.36000061035156 C 14.59000015258789 30.54000091552734 16.36000061035156 34.7400016784668 16.36000061035156 39.36000061035156 C 16.36000061035156 40.38000106811523 16.23999977111816 41.36999893188477 16.09000015258789 42.36000061035156 L 25.51000022888184 42.36000061035156 M 28.19512939453125 45.36000061035156 L 25.51000022888184 45.36000061035156 L 16.09000015258789 45.36000061035156 L 12.60121059417725 45.36000061035156 L 13.12384986877441 41.91057968139648 C 13.24063014984131 41.1398811340332 13.36000061035156 40.23416137695313 13.36000061035156 39.36000061035156 C 13.36000061035156 35.68595123291016 11.99127006530762 32.13534164428711 9.505929946899414 29.36223030090332 L 5.022799968719482 24.36000061035156 L 11.73999977111816 24.36000061035156 L 13.36000061035156 24.36000061035156 C 15.01420974731445 24.36000061035156 16.36000061035156 23.01420974731445 16.36000061035156 21.36000061035156 L 16.36000061035156 15.73264026641846 L 16.18000030517578 15.55263996124268 L 14.07132053375244 17.66131973266602 L 11.94999980926514 19.78264045715332 L 9.828680038452148 17.66131973266602 L 7.69867992401123 15.53132057189941 L 5.577360153198242 13.40999984741211 L 7.69867992401123 11.28868007659912 L 18.28868103027344 0.6986801624298096 L 20.40999984741211 -1.422639846801758 L 22.53132057189941 0.6986801624298096 L 24.66131973266602 2.828680038452148 L 26.78264045715332 4.950000286102295 L 24.66131973266602 7.071320056915283 L 22.55264091491699 9.180000305175781 L 22.73263931274414 9.360000610351563 L 40.36000061035156 9.360000610351563 C 45.3226203918457 9.360000610351563 49.36000061035156 13.39737987518311 49.36000061035156 18.36000061035156 L 49.36000061035156 32.63999938964844 L 49.36000061035156 38.24554824829102 L 44.69589996337891 35.13615036010742 C 42.92805099487305 33.95758056640625 40.96456909179688 33.36000061035156 38.86000061035156 33.36000061035156 C 33.5401496887207 33.36000061035156 29.08272933959961 37.37158203125 28.49164962768555 42.69129180908203 L 28.19512939453125 45.36000061035156 Z" stroke="none" fill="#fff"/>
      </g>
      <g id="Path_35" data-name="Path 35" transform="translate(29 17.54)" fill="none">
        <path d="M26.5,13A10.5,10.5,0,1,0,37,23.5,10.512,10.512,0,0,0,26.5,13Zm0,15A4.5,4.5,0,1,1,31,23.5,4.494,4.494,0,0,1,26.5,28Z" stroke="none"/>
        <path d="M 26.5 13 C 20.70999145507813 13 16 17.70999908447266 16 23.5 C 16 29.29000091552734 20.70999145507813 34 26.5 34 C 32.29000091552734 34 37 29.29000091552734 37 23.5 C 37 17.70999908447266 32.29000091552734 13 26.5 13 M 26.5 28 C 24.01000022888184 28 22 25.98999977111816 22 23.5 C 22 21.01000022888184 24.01000022888184 19 26.5 19 C 28.98999977111816 19 31 21.01000022888184 31 23.5 C 31 25.98999977111816 28.98999977111816 28 26.5 28 M 26.5 10 C 33.94393157958984 10 40 16.05607032775879 40 23.5 C 40 30.94392967224121 33.94393157958984 37 26.5 37 C 19.05606842041016 37 13 30.94392967224121 13 23.5 C 13 16.05607032775879 19.05606842041016 10 26.5 10 Z M 26.5 25 C 27.32710075378418 25 28 24.32710075378418 28 23.5 C 28 22.67289924621582 27.32710075378418 22 26.5 22 C 25.67289924621582 22 25 22.67289924621582 25 23.5 C 25 24.32710075378418 25.67289924621582 25 26.5 25 Z" stroke="none" fill="#fff"/>
      </g>
      <g id="Path_36" data-name="Path 36" transform="translate(3 5.54)" fill="none">
        <path d="M6,13H21a6.018,6.018,0,0,0-6-6H6a3,3,0,0,0,0,6Z" stroke="none"/>
        <path d="M 21.00000190734863 13 C 21.00000190734863 9.699999809265137 18.30000114440918 7 15.00000190734863 7 L 6.000001907348633 7 C 4.350001811981201 7 3.000001907348633 8.350000381469727 3.000001907348633 10 C 3.000001907348633 11.64999961853027 4.350001811981201 13 6.000001907348633 13 L 21.00000190734863 13 M 24.00000190734863 16 L 21.00000190734863 16 L 6.000001907348633 16 C 2.69159197807312 16 1.9073486328125e-06 13.30840969085693 1.9073486328125e-06 10 C 1.9073486328125e-06 6.691589832305908 2.69159197807312 4 6.000001907348633 4 L 15.00000190734863 4 C 19.96262168884277 4 24.00000190734863 8.037380218505859 24.00000190734863 13 L 24.00000190734863 16 Z" stroke="none" fill="#fff"/>
      </g>
      <g id="Path_37" data-name="Path 37" transform="translate(-1 11.54)" fill="none">
        <path d="M27.49,21.46l-.54-1.41L29.74,19a14.758,14.758,0,0,0-6.93-7.29l-1.2,2.67-1.38-.63,1.2-2.7A14.707,14.707,0,0,0,16,10a15.3,15.3,0,0,0-4.56.78l1.02,2.73-1.41.54L10,11.26a14.758,14.758,0,0,0-7.29,6.93l2.67,1.2-.63,1.38-2.7-1.2A14.707,14.707,0,0,0,1,25a15.3,15.3,0,0,0,.78,4.56l2.73-1.02.54,1.41L2.26,31a14.758,14.758,0,0,0,6.93,7.29l1.2-2.67,1.38.63-1.2,2.7A14.707,14.707,0,0,0,16,40a15.3,15.3,0,0,0,4.56-.78l-1.02-2.73,1.41-.54L22,38.74a14.758,14.758,0,0,0,7.29-6.93l-2.67-1.2.63-1.38,2.7,1.2A14.707,14.707,0,0,0,31,25a15.3,15.3,0,0,0-.78-4.56ZM19.45,33.31a9,9,0,1,1,4.86-11.76A9,9,0,0,1,19.45,33.31Z" stroke="none"/>
        <path d="M 16 10.00000381469727 C 14.41000175476074 10.00000381469727 12.88000106811523 10.33000183105469 11.44000053405762 10.78000259399414 L 12.46000099182129 13.51000213623047 L 11.05000114440918 14.05000305175781 L 10 11.26000213623047 C 6.820001602172852 12.6400032043457 4.270000457763672 15.10000228881836 2.710000991821289 18.19000244140625 L 5.380001068115234 19.39000129699707 L 4.75 20.7700023651123 L 2.05000114440918 19.57000160217285 C 1.39000129699707 21.22000122070313 1 23.08000183105469 1 25.00000190734863 C 1 26.59001159667969 1.330001831054688 28.12000274658203 1.780000686645508 29.56000137329102 L 4.510000228881836 28.54001235961914 L 5.05000114440918 29.95000267028809 L 2.260000228881836 31.00000190734863 C 3.64000129699707 34.18000030517578 6.100000381469727 36.73000335693359 9.190000534057617 38.29000091552734 L 10.39000129699707 35.62000274658203 L 11.77000045776367 36.2500114440918 L 10.57000160217285 38.95000076293945 C 12.22000122070313 39.61001205444336 14.08000183105469 40 16 40 C 17.59000015258789 40 19.1200008392334 39.67000198364258 20.56000137329102 39.22000122070313 L 19.54000091552734 36.4900016784668 L 20.95000076293945 35.95000076293945 L 22 38.7400016784668 C 25.18000030517578 37.36001205444336 27.73000144958496 34.90000152587891 29.29000091552734 31.81000137329102 L 26.6200008392334 30.61001205444336 L 27.25 29.23001098632813 L 29.95000076293945 30.43001174926758 C 30.61000061035156 28.78000259399414 31 26.92001152038574 31 25.00000190734863 C 31 23.41000175476074 30.67000007629395 21.88000106811523 30.22000122070313 20.44000244140625 L 27.4900016784668 21.46000099182129 L 26.95000076293945 20.05000114440918 L 29.7400016784668 19.00000190734863 C 28.36000061035156 15.82000350952148 25.90000152587891 13.27000045776367 22.81000137329102 11.71000289916992 L 21.61000061035156 14.38000106811523 L 20.22999954223633 13.75000381469727 L 21.43000030517578 11.05000305175781 C 19.78000068664551 10.3900032043457 17.92000198364258 10.00000381469727 16 10.00000381469727 M 16.0068359375 33.99367904663086 C 12.47288131713867 33.99367904663086 9.116268157958984 31.9138011932373 7.690000534057617 28.45000267028809 C 5.80000114440918 23.8600025177002 7.960000991821289 18.58000183105469 12.55000114440918 16.69000244140625 C 13.67620849609375 16.22626876831055 14.84415626525879 16.00632858276367 15.99317741394043 16.00632858276367 C 19.52713012695313 16.00632858276367 22.88373374938965 18.08620262145996 24.31000137329102 21.55000114440918 C 26.23000144958496 26.14000129699707 24.04000091552734 31.42000198364258 19.45000076293945 33.31001281738281 C 18.32379150390625 33.77374267578125 17.15585708618164 33.99367904663086 16.0068359375 33.99367904663086 M 16 7.000003814697266 C 17.76727485656738 7.000003814697266 19.56626319885254 7.278831481933594 21.27262496948242 7.812496185302734 L 21.36028099060059 7.617462158203125 L 23.01544570922852 8.453079223632813 L 25.43670082092285 9.421581268310547 L 25.32475280761719 9.673465728759766 C 28.12401008605957 11.3547248840332 30.40886497497559 13.7579460144043 31.91457366943359 16.60431289672852 L 32.13830184936523 16.52072143554688 L 32.66289520263672 18.19943618774414 L 33.74692916870117 20.69744110107422 L 33.44231796264648 20.81208038330078 C 33.81681823730469 22.29385185241699 34 23.67365455627441 34 25.00000190734863 C 34 26.76727676391602 33.72117614746094 28.56625175476074 33.1875114440918 30.27261924743652 L 33.38254165649414 30.36027145385742 L 32.54695510864258 32.01537322998047 L 31.57843017578125 34.43671417236328 L 31.32653617858887 34.32476043701172 C 29.6452693939209 37.12403106689453 27.24205780029297 39.40887832641602 24.39569091796875 40.91457366943359 L 24.47928047180176 41.13830184936523 L 22.8005256652832 41.66291046142578 L 20.30256080627441 42.74692153930664 L 20.18792533874512 42.44231796264648 C 18.70615386962891 42.81681823730469 17.32634925842285 43 16 43 C 14.23270225524902 43 12.43373107910156 42.7211799621582 10.72737503051758 42.1875114440918 L 10.63972091674805 42.38254165649414 L 8.984504699707031 41.54689788818359 L 6.563310623168945 40.57839965820313 L 6.675251007080078 40.3265380859375 C 3.875991821289063 38.64527893066406 1.591133117675781 36.24205017089844 0.08542442321777344 33.39568328857422 L -0.1382980346679688 33.47927093505859 L -0.6628913879394531 31.80057907104492 L -1.746929168701172 29.30256271362305 L -1.442314147949219 29.18792343139648 C -1.816814422607422 27.70615196228027 -2 26.32634925842285 -2 25.00000190734863 C -2 23.23272705078125 -1.721168518066406 21.43374061584473 -1.187503814697266 19.72737884521484 L -1.382537841796875 19.63972282409668 L -0.5469207763671875 17.98455810546875 L 0.4215812683105469 15.56330108642578 L 0.6734638214111328 15.67525100708008 C 2.354724884033203 12.87599182128906 4.757944107055664 10.59113693237305 7.604310989379883 9.085430145263672 L 7.520721435546875 8.861701965332031 L 9.199434280395508 8.337104797363281 L 11.69744110107422 7.253070831298828 L 11.81208038330078 7.557685852050781 C 13.29384994506836 7.183185577392578 14.67365264892578 7.000003814697266 16 7.000003814697266 Z M 16.00683212280273 30.99368095397949 C 16.7960205078125 30.99368095397949 17.57017135620117 30.83969116210938 18.30776214599609 30.53597259521484 C 19.78575134277344 29.92739105224609 20.93712997436523 28.77603149414063 21.54980087280273 27.29399108886719 C 22.1623420715332 25.81227111816406 22.15970230102539 24.18349266052246 21.54238128662109 22.70770263671875 L 21.53915023803711 22.69998168945313 L 21.53597068786621 22.69225120544434 C 20.61398124694824 20.4531421661377 18.43831062316895 19.00633239746094 15.9931812286377 19.00633239746094 C 15.20398139953613 19.00633239746094 14.42983055114746 19.16032218933105 13.69224166870117 19.46404266357422 C 10.64754104614258 20.71774101257324 9.199371337890625 24.23642158508301 10.46403121948242 27.30775260925293 C 11.38602066040039 29.54687118530273 13.56170082092285 30.99368095397949 16.00683212280273 30.99368095397949 Z" stroke="none" fill="#fff"/>
      </g>
    </g>
  </g>
</svg>
