<svg xmlns="http://www.w3.org/2000/svg" width="141" height="35" viewBox="0 0 141 35">
  <g id="Group_200" data-name="Group 200" transform="translate(-145 -422)">
    <text id="play_store" data-name="play store" transform="translate(286 452)" fill="#fff" font-size="18" font-family="SegoeUI, Segoe UI"><tspan x="-78.539" y="0">Play Store</tspan></text>
    <text id="Download_from" data-name="Download from" transform="translate(286 433)" fill="#fff" font-size="10" font-family="SegoeUI, Segoe UI"><tspan x="-68.833" y="0">Download from</tspan></text>
    <g id="iconfinder_36-android_104471_1_" data-name="iconfinder_36-android_104471 (1)" transform="translate(137.979 417.626)">
      <path id="Path_56" data-name="Path 56" d="M28.519,7.221l.371-.556.365-.548.821-1.231a.329.329,0,1,0-.548-.365l-.879,1.32-.37.555-.375.562a11.009,11.009,0,0,0-7.829,0L19.7,6.4l-.37-.555-.88-1.32a.329.329,0,1,0-.548.365l.82,1.231.366.548.371.556a7.478,7.478,0,0,0-4.682,6.585H33.2A7.478,7.478,0,0,0,28.519,7.221Zm-8.478,3.953a.987.987,0,1,1,.986-.987A.987.987,0,0,1,20.041,11.174Zm7.9,0a.987.987,0,1,1,.988-.987A.986.986,0,0,1,27.937,11.174Z" transform="translate(-2.491 0)" fill="#fff"/>
      <path id="Path_57" data-name="Path 57" d="M14.919,20.208h-.142V34.685a2.086,2.086,0,0,0,2.083,2.084h1.5a1.971,1.971,0,0,0-.079.548v4.169a1.974,1.974,0,0,0,3.949,0V37.317a2.027,2.027,0,0,0-.078-.548h3.666a1.971,1.971,0,0,0-.078.548v4.169a1.974,1.974,0,0,0,3.948,0V37.317a1.975,1.975,0,0,0-.078-.548h1.5A2.086,2.086,0,0,0,33.2,34.685V20.208H14.919Z" transform="translate(-2.491 -5.086)" fill="#fff"/>
      <path id="Path_58" data-name="Path 58" d="M8.995,20.208a1.974,1.974,0,0,0-1.974,1.975v8.444a1.974,1.974,0,1,0,3.948,0V22.182A1.974,1.974,0,0,0,8.995,20.208Z" transform="translate(0 -5.086)" fill="#fff"/>
      <path id="Path_59" data-name="Path 59" d="M45.833,20.208a1.973,1.973,0,0,0-1.974,1.975v8.444a1.973,1.973,0,1,0,3.947,0V22.182A1.973,1.973,0,0,0,45.833,20.208Z" transform="translate(-11.832 -5.086)" fill="#fff"/>
    </g>
  </g>
</svg>
