<svg id="_22222" data-name="22222" xmlns="http://www.w3.org/2000/svg" width="40" height="40" viewBox="0 0 40 40">
  <path id="Path_31" data-name="Path 31" d="M0,0H40V40H0Z" fill="none"/>
  <path id="Path_32" data-name="Path 32" d="M32.481,5.964A2.781,2.781,0,0,0,29.852,4H9.481a2.8,2.8,0,0,0-2.63,1.964L3,17.611V33.167a1.905,1.905,0,0,0,1.852,1.944H6.7a1.905,1.905,0,0,0,1.852-1.944V31.222H30.778v1.944a1.905,1.905,0,0,0,1.852,1.944h1.852a1.905,1.905,0,0,0,1.852-1.944V17.611Zm-23,19.425a2.92,2.92,0,0,1,0-5.833,2.92,2.92,0,0,1,0,5.833Zm20.37,0a2.92,2.92,0,1,1,2.778-2.917A2.846,2.846,0,0,1,29.852,25.389ZM6.7,15.667l2.778-8.75h20.37l2.778,8.75Z" transform="translate(0.333 0.444)" fill="none" stroke="#e84f5b" stroke-width="1"/>
</svg>
