<svg xmlns="http://www.w3.org/2000/svg" width="21.015" height="19.647" viewBox="0 0 21.015 19.647">
  <path id="Path_32" data-name="Path 32" d="M21.144,5.209A1.711,1.711,0,0,0,19.526,4H6.989A1.722,1.722,0,0,0,5.371,5.209L3,12.377V21.95a1.173,1.173,0,0,0,1.14,1.2h1.14a1.173,1.173,0,0,0,1.14-1.2v-1.2H20.1v1.2a1.173,1.173,0,0,0,1.14,1.2h1.14a1.173,1.173,0,0,0,1.14-1.2V12.377ZM6.989,17.164a1.8,1.8,0,0,1,0-3.59,1.8,1.8,0,0,1,0,3.59Zm12.537,0a1.8,1.8,0,1,1,1.71-1.8A1.751,1.751,0,0,1,19.526,17.164ZM5.279,11.18,6.989,5.8H19.526l1.71,5.385Z" transform="translate(-2.75 -3.75)" fill="none" stroke="#110f0f" stroke-width="0.5"/>
</svg>
