<svg xmlns="http://www.w3.org/2000/svg" width="63" height="59" viewBox="0 0 63 59">
  <path id="car2" d="M56.067,7.535A5.005,5.005,0,0,0,51.333,4H14.667A5.037,5.037,0,0,0,9.933,7.535L3,28.5v28A3.43,3.43,0,0,0,6.333,60H9.667A3.43,3.43,0,0,0,13,56.5V53H53v3.5A3.43,3.43,0,0,0,56.333,60h3.333A3.43,3.43,0,0,0,63,56.5v-28ZM14.667,42.5a5.256,5.256,0,0,1,0-10.5,5.256,5.256,0,0,1,0,10.5Zm36.667,0a5.256,5.256,0,1,1,5-5.25A5.123,5.123,0,0,1,51.333,42.5ZM9.667,25l5-15.75H51.333l5,15.75Z" transform="translate(-1.5 -2.5)" fill="none" stroke="#fff" stroke-width="3"/>
</svg>
