<svg xmlns="http://www.w3.org/2000/svg" width="24" height="24" viewBox="0 0 24 24">
  <g id="chrome_reader_mode-24px" transform="translate(74)">
    <path id="Path_128" data-name="Path 128" d="M-74,9.039h11.755V24H-74ZM-55.878,0H-50V7.481h-5.878Zm0,0H-50V7.481h-5.878Z" transform="translate(0)" fill="none"/>
    <path id="Path_129" data-name="Path 129" d="M13,11.083h7v1.328H13ZM13,8.87h7V10.2H13ZM13,13.3h7v1.328H13Zm8-9.3H3A1.9,1.9,0,0,0,1,5.771v11.51a1.9,1.9,0,0,0,2,1.771H20.994a1.9,1.9,0,0,0,2-1.771V5.771A1.9,1.9,0,0,0,20.994,4Zm0,13.281H12V5.771h9Z" transform="translate(-73.997 -0.023)" fill="#5c656b"/>
  </g>
</svg>
