<svg xmlns="http://www.w3.org/2000/svg" width="20.042" height="20.042" viewBox="0 0 20.042 20.042">
  <path id="Path_160" data-name="Path 160" d="M11.019,14.025h-2a9.019,9.019,0,0,1,9.019-9.019v2A7.009,7.009,0,0,0,11.019,14.025Zm7.015-3.006v-2a5.012,5.012,0,0,0-5.01,5.01h2A3,3,0,0,1,18.033,11.019ZM7.01,4a2,2,0,1,0-2,2A2,2,0,0,0,7.01,4Zm4.459.5h-2A3,3,0,0,1,6.509,7.01H3.5A1.5,1.5,0,0,0,2,8.514v2.505H8.012V8.754A4.98,4.98,0,0,0,11.47,4.505Zm7.566,12.526a2,2,0,1,0-2-2A2,2,0,0,0,19.035,17.031Zm1.5,1H17.532a3,3,0,0,1-2.956-2.505h-2a4.98,4.98,0,0,0,3.457,4.249v2.265h6.012V19.536A1.5,1.5,0,0,0,20.539,18.033Z" transform="translate(-2 -2)" fill="#5c656b"/>
</svg>
