<svg id="connect_without_contact-24px" xmlns="http://www.w3.org/2000/svg" width="48" height="48" viewBox="0 0 48 48">
  <rect id="Rectangle_262" data-name="Rectangle 262" width="48" height="48" fill="none"/>
  <path id="Path_160" data-name="Path 160" d="M20,26H16A18,18,0,0,1,34,8v4A13.99,13.99,0,0,0,20,26Zm14-6V16A10,10,0,0,0,24,26h4A5.992,5.992,0,0,1,34,20ZM12,6a4,4,0,1,0-4,4A3.986,3.986,0,0,0,12,6Zm8.9,1h-4A5.979,5.979,0,0,1,11,12H5a3,3,0,0,0-3,3v5H14V15.48A9.94,9.94,0,0,0,20.9,7ZM36,32a4,4,0,1,0-4-4A3.986,3.986,0,0,0,36,32Zm3,2H33a5.979,5.979,0,0,1-5.9-5h-4A9.94,9.94,0,0,0,30,37.48V42H42V37A3,3,0,0,0,39,34Z" transform="translate(2 2)" fill="#fff"/>
</svg>
