<svg xmlns="http://www.w3.org/2000/svg" width="84" height="84" viewBox="0 0 84 84">
  <g id="Group_337" data-name="Group 337" transform="translate(-270 -1097)">
    <g id="Rectangle_250" data-name="Rectangle 250" transform="translate(270 1097)" fill="none" stroke="#e84f5b" stroke-width="2">
      <rect width="84" height="84" rx="10" stroke="none"/>
      <rect x="1" y="1" width="82" height="82" rx="9" fill="none"/>
    </g>
    <path id="Path_64" data-name="Path 64" d="M0,0H64.945V64.945H0Z" transform="translate(274.623 1107.223)" fill="none"/>
    <path id="Path_65" data-name="Path 65" d="M21.149,24.378c-6.143-1.6-8.118-3.247-8.118-5.818,0-2.95,2.733-5.006,7.306-5.006,4.817,0,6.6,2.3,6.765,5.683h5.98A10.787,10.787,0,0,0,24.4,8.926V3H16.278V8.845c-5.25,1.137-9.471,4.546-9.471,9.769,0,6.251,5.169,9.363,12.718,11.176,6.765,1.624,8.118,4,8.118,6.522,0,1.867-1.326,4.844-7.306,4.844-5.574,0-7.766-2.49-8.064-5.683H6.32c.325,5.926,4.763,9.255,9.958,10.364v5.872H24.4V45.891c5.277-1,9.471-4.059,9.471-9.606C33.868,28.6,27.292,25.974,21.149,24.378Z" transform="translate(292.206 1111.589)" fill="none" stroke="#e84f5b" stroke-width="3"/>
  </g>
</svg>
