<svg xmlns="http://www.w3.org/2000/svg" width="63" height="63" viewBox="0 0 63 63">
  <g id="Group_147" data-name="Group 147" transform="translate(1.5 1.5)">
    <g id="Group_146" data-name="Group 146">
      <path id="Path_41" data-name="Path 41" d="M56,14H44V8a6.018,6.018,0,0,0-6-6H26a6.018,6.018,0,0,0-6,6v6H8a6.018,6.018,0,0,0-6,6V56a6.018,6.018,0,0,0,6,6H56a6.018,6.018,0,0,0,6-6V20A6.018,6.018,0,0,0,56,14ZM26,8H38v6H26ZM44,41H35v9H29V41H20V35h9V26h6v9h9Z" transform="translate(-2 -2)" fill="none" stroke="#fff" stroke-width="3"/>
    </g>
  </g>
</svg>
