<svg xmlns="http://www.w3.org/2000/svg" width="184" height="147.2" viewBox="0 0 184 147.2">
  <g id="Group_413" data-name="Group 413" transform="translate(-882 -1317)">
    <g id="Group_256" data-name="Group 256" transform="translate(-1.5 276)">
      <path id="Path_111" data-name="Path 111" d="M18.4,0H184L156.4,128.8A18.4,18.4,0,0,1,138,147.2H18.4A18.4,18.4,0,0,1,0,128.8V18.4A18.4,18.4,0,0,1,18.4,0Z" transform="translate(883.5 1041)" fill="#d0616c"/>
    </g>
    <g id="question_answer-24px" transform="translate(929 1364)">
      <path id="Path_130" data-name="Path 130" d="M0,0H60V60H0Z" fill="none"/>
      <path id="Path_131" data-name="Path 131" d="M55.2,13.2H49.6V38.4H13.2V44A2.808,2.808,0,0,0,16,46.8H46.8L58,58V16A2.808,2.808,0,0,0,55.2,13.2ZM44,30V4.8A2.808,2.808,0,0,0,41.2,2H4.8A2.808,2.808,0,0,0,2,4.8V44L13.2,32.8h28A2.808,2.808,0,0,0,44,30Z" transform="translate(0 0)" fill="#fff"/>
    </g>
  </g>
</svg>
