<svg xmlns="http://www.w3.org/2000/svg" width="184" height="147.2" viewBox="0 0 184 147.2">
  <g id="Group_414" data-name="Group 414" transform="translate(-307 -1317)">
    <g id="Group_254" data-name="Group 254" transform="translate(-576.5 276)">
      <path id="Path_111" data-name="Path 111" d="M18.4,0H184L156.4,128.8A18.4,18.4,0,0,1,138,147.2H18.4A18.4,18.4,0,0,1,0,128.8V18.4A18.4,18.4,0,0,1,18.4,0Z" transform="translate(883.5 1041)" fill="#d0616c"/>
    </g>
    <g id="payments-24px_1_" data-name="payments-24px (1)" transform="translate(354 1361)">
      <path id="Path_123" data-name="Path 123" d="M0,0H60V60H0Z" fill="none"/>
      <path id="Path_124" data-name="Path 124" d="M46.818,31.5V9.5A5.323,5.323,0,0,0,41.727,4H6.091A5.323,5.323,0,0,0,1,9.5v22A5.323,5.323,0,0,0,6.091,37H41.727A5.323,5.323,0,0,0,46.818,31.5ZM23.909,28.75c-4.225,0-7.636-3.685-7.636-8.25s3.411-8.25,7.636-8.25,7.636,3.685,7.636,8.25S28.135,28.75,23.909,28.75ZM57,12.25V42.5A5.323,5.323,0,0,1,51.909,48H8.636V42.5H51.909V12.25Z" transform="translate(1 4)" fill="#fff"/>
    </g>
  </g>
</svg>
