<svg xmlns="http://www.w3.org/2000/svg" width="184" height="147.2" viewBox="0 0 184 147.2">
  <g id="Group_412" data-name="Group 412" transform="translate(-595 -1320)">
    <g id="Group_255" data-name="Group 255" transform="translate(-288.5 279)">
      <path id="Path_111" data-name="Path 111" d="M18.4,0H184L156.4,128.8A18.4,18.4,0,0,1,138,147.2H18.4A18.4,18.4,0,0,1,0,128.8V18.4A18.4,18.4,0,0,1,18.4,0Z" transform="translate(883.5 1041)" fill="#d0616c"/>
    </g>
    <g id="chrome_reader_mode-24px" transform="translate(720 1364)">
      <path id="Path_128" data-name="Path 128" d="M-74,22.6h29.388V60H-74ZM-28.694,0H-14V18.7H-28.694Zm0,0H-14V18.7H-28.694Z" transform="translate(0)" fill="none"/>
      <path id="Path_129" data-name="Path 129" d="M31.071,21.189H48.612v3.223H31.071Zm0-5.372H48.612V19.04H31.071Zm0,10.743H48.612v3.223H31.071ZM51.118,4H6.012C3.255,4,1,5.934,1,8.3V36.229c0,2.363,2.255,4.3,5.012,4.3H51.118c2.756,0,5.012-1.934,5.012-4.3V8.3C56.13,5.934,53.875,4,51.118,4Zm0,32.229H28.565V8.3H51.118Z" transform="translate(-72.565 6.433)" fill="#fff"/>
    </g>
  </g>
</svg>
