<svg xmlns="http://www.w3.org/2000/svg" width="25.117" height="25.117" viewBox="0 0 25.117 25.117">
  <g id="Group_147" data-name="Group 147" transform="translate(0.25 0.25)">
    <g id="Group_146" data-name="Group 146">
      <path id="Path_41" data-name="Path 41" d="M24.156,6.923H19.232V4.462A2.469,2.469,0,0,0,16.77,2H11.847A2.469,2.469,0,0,0,9.385,4.462V6.923H4.462A2.469,2.469,0,0,0,2,9.385v14.77a2.469,2.469,0,0,0,2.462,2.462H24.156a2.469,2.469,0,0,0,2.462-2.462V9.385A2.469,2.469,0,0,0,24.156,6.923ZM11.847,4.462H16.77V6.923H11.847ZM19.232,18H15.54v3.693H13.078V18H9.385V15.54h3.693V11.847H15.54V15.54h3.693Z" transform="translate(-2 -2)" fill="none" stroke="#110f0f" stroke-width="0.5"/>
    </g>
  </g>
</svg>
