<svg xmlns="http://www.w3.org/2000/svg" width="26.108" height="24.019" viewBox="0 0 26.108 24.019">
  <g id="icons" transform="translate(0.5 0.5)">
    <path id="message" d="M4.185,1H20.923a4.2,4.2,0,0,1,4.185,4.185V15.646a4.2,4.2,0,0,1-4.185,4.185v3.138a1.046,1.046,0,0,1-1.778.732l-3.871-3.871H4.185A4.2,4.2,0,0,1,0,15.646V5.185A4.2,4.2,0,0,1,4.185,1Zm6.277,12.554h6.277a1.046,1.046,0,1,0,0-2.092H10.462a1.046,1.046,0,1,0,0,2.092ZM8.369,9.369h8.369a.988.988,0,0,0,1.046-1.046.988.988,0,0,0-1.046-1.046H8.369A.988.988,0,0,0,7.323,8.323.988.988,0,0,0,8.369,9.369Z" transform="translate(0 -1)" fill="none" stroke="#fff" stroke-width="1"/>
  </g>
</svg>
