<svg xmlns="http://www.w3.org/2000/svg" width="40" height="40" viewBox="0 0 40 40">
  <g id="iconfinder_58-youtube_104445" opacity="0.6">
    <path id="Path_19" data-name="Path 19" d="M17.833,31.163H18.8v4.8h.934v-4.8H20.7v-.818H17.833Z" transform="translate(-5.914 -8.074)" fill="#fff"/>
    <path id="Path_20" data-name="Path 20" d="M28.089,21.779a.427.427,0,0,0,.3-.1.382.382,0,0,0,.112-.289V18.9a.292.292,0,0,0-.114-.241.458.458,0,0,0-.3-.093.409.409,0,0,0-.278.093.3.3,0,0,0-.106.241v2.489a.4.4,0,0,0,.1.289A.374.374,0,0,0,28.089,21.779Z" transform="translate(-8.027 -7.178)" fill="#fff"/>
    <path id="Path_21" data-name="Path 21" d="M30.883,31.769a.819.819,0,0,0-.382.1,1.279,1.279,0,0,0-.355.289V30.345h-.838v5.621h.838v-.318a1.069,1.069,0,0,0,.354.282,1,1,0,0,0,.434.09.686.686,0,0,0,.562-.234,1.035,1.035,0,0,0,.2-.676v-2.3a1.224,1.224,0,0,0-.209-.774A.716.716,0,0,0,30.883,31.769ZM30.837,35a.449.449,0,0,1-.072.286.27.27,0,0,1-.223.088.485.485,0,0,1-.2-.044.676.676,0,0,1-.2-.146V32.6a.581.581,0,0,1,.17-.127.386.386,0,0,1,.176-.041.323.323,0,0,1,.259.107.5.5,0,0,1,.087.32Z" transform="translate(-7.851 -8.052)" fill="#fff"/>
    <path id="Path_22" data-name="Path 22" d="M25.33,36.214a1.17,1.17,0,0,1-.257.221.474.474,0,0,1-.231.087.2.2,0,0,1-.17-.066.349.349,0,0,1-.052-.212V33.063h-.828v3.468a.9.9,0,0,0,.145.556.52.52,0,0,0,.433.184,1.013,1.013,0,0,0,.482-.131,1.855,1.855,0,0,0,.478-.385v.454h.829V33.064h-.829v3.151Z" transform="translate(-6.965 -8.988)" fill="#fff"/>
    <path id="Path_23" data-name="Path 23" d="M23.722,5.155a20,20,0,1,0,20,20A20,20,0,0,0,23.722,5.155Zm3.231,9.878h1.4v5.246a.553.553,0,0,0,.09.351.341.341,0,0,0,.284.111.825.825,0,0,0,.39-.145,1.915,1.915,0,0,0,.43-.371V15.033h1.4v6.842h-1.4v-.755a2.933,2.933,0,0,1-.8.636,1.753,1.753,0,0,1-.811.219.882.882,0,0,1-.731-.308,1.446,1.446,0,0,1-.244-.917V15.033ZM21.763,16.6a1.575,1.575,0,0,1,.563-1.268,2.315,2.315,0,0,1,1.518-.469,2.061,2.061,0,0,1,1.423.5,1.644,1.644,0,0,1,.552,1.282v3.533a1.778,1.778,0,0,1-.541,1.377,2.142,2.142,0,0,1-1.5.5,2.071,2.071,0,0,1-1.468-.512,1.821,1.821,0,0,1-.551-1.39V16.6Zm-3.808-4,1.022,3.705h.1l.972-3.705h1.6l-1.831,5.427v3.847H18.244V18.2L16.37,12.6ZM36.261,32.12A4.484,4.484,0,0,1,31.78,36.6H16.205a4.484,4.484,0,0,1-4.483-4.483v-3.6a4.483,4.483,0,0,1,4.483-4.483H31.78a4.482,4.482,0,0,1,4.482,4.483Z" transform="translate(-3.722 -5.155)" fill="#fff"/>
    <path id="Path_24" data-name="Path 24" d="M35.763,32.874a1.247,1.247,0,0,0-.908.34,1.167,1.167,0,0,0-.353.877v1.865a1.319,1.319,0,0,0,.321.94,1.143,1.143,0,0,0,.877.342,1.236,1.236,0,0,0,.93-.321,1.326,1.326,0,0,0,.312-.962v-.213h-.853v.189a.889.889,0,0,1-.082.473.341.341,0,0,1-.288.107.311.311,0,0,1-.281-.125.911.911,0,0,1-.08-.456v-.78h1.585V34.092a1.246,1.246,0,0,0-.3-.9A1.169,1.169,0,0,0,35.763,32.874Zm.328,1.631h-.732v-.419a.612.612,0,0,1,.085-.372.331.331,0,0,1,.285-.114.32.32,0,0,1,.276.114.617.617,0,0,1,.087.372v.419Z" transform="translate(-8.668 -8.9)" fill="#fff"/>
  </g>
</svg>
