<svg xmlns="http://www.w3.org/2000/svg" width="40" height="40" viewBox="0 0 40 40">
  <path id="iconfinder_linkedin_circle_black_107159" d="M35.225,33.425V25.617c0-4.183-2.233-6.13-5.211-6.13a4.492,4.492,0,0,0-4.079,2.249V19.807H21.408c.06,1.278,0,13.618,0,13.618h4.527V25.819a3.087,3.087,0,0,1,.149-1.1,2.476,2.476,0,0,1,2.321-1.655c1.639,0,2.293,1.249,2.293,3.079v7.286h4.526ZM16.639,17.948a2.36,2.36,0,1,0,.03-4.706,2.359,2.359,0,1,0-.059,4.706ZM24,44A20,20,0,1,1,44,24,20,20,0,0,1,24,44ZM18.9,33.425V19.807H14.377V33.425Z" transform="translate(-4 -4)" fill="#fff" fill-rule="evenodd" opacity="0.6"/>
</svg>
