<svg xmlns="http://www.w3.org/2000/svg" width="52" height="52" viewBox="0 0 52 52">
  <path id="Path_158" data-name="Path 158" d="M27,2a25,25,0,0,0,0,50H39.5V47H27A20.256,20.256,0,0,1,7,27,20.256,20.256,0,0,1,27,7,20.256,20.256,0,0,1,47,27v3.575A4.041,4.041,0,0,1,43.25,34.5a4.041,4.041,0,0,1-3.75-3.925V27a12.5,12.5,0,1,0-3.65,8.825,9.258,9.258,0,0,0,7.4,3.675A8.782,8.782,0,0,0,52,30.575V27A25.009,25.009,0,0,0,27,2Zm0,32.5A7.5,7.5,0,1,1,34.5,27,7.49,7.49,0,0,1,27,34.5Z" transform="translate(-1 -1)" fill="none" stroke="#fff" stroke-width="2"/>
</svg>
