<svg id="collections_bookmark-24px" xmlns="http://www.w3.org/2000/svg" width="24" height="24" viewBox="0 0 24 24">
  <path id="Path_199" data-name="Path 199" d="M0,0H24V24H0Z" fill="none"/>
  <path id="Path_200" data-name="Path 200" d="M0,0H24V24H0Z" fill="none"/>
  <path id="Path_201" data-name="Path 201" d="M4,6H2V20a2.006,2.006,0,0,0,2,2H18V20H4Z" fill="#5c656b"/>
  <path id="Path_202" data-name="Path 202" d="M20,2H8A2.006,2.006,0,0,0,6,4V16a2.006,2.006,0,0,0,2,2H20a2.006,2.006,0,0,0,2-2V4A2.006,2.006,0,0,0,20,2Zm0,10-2.5-1.5L15,12V4h5Z" fill="#5c656b"/>
</svg>
