<svg id="payments-24px_1_" data-name="payments-24px (1)" xmlns="http://www.w3.org/2000/svg" width="24" height="24" viewBox="0 0 24 24">
  <path id="Path_123" data-name="Path 123" d="M0,0H24V24H0Z" fill="none"/>
  <path id="Path_124" data-name="Path 124" d="M18.659,12.958V5.792A1.888,1.888,0,0,0,16.7,4H2.962A1.888,1.888,0,0,0,1,5.792v7.167A1.888,1.888,0,0,0,2.962,14.75H16.7A1.888,1.888,0,0,0,18.659,12.958Zm-8.83-.9A2.82,2.82,0,0,1,6.886,9.375,2.82,2.82,0,0,1,9.83,6.688a2.82,2.82,0,0,1,2.943,2.688A2.82,2.82,0,0,1,9.83,12.063ZM22.583,6.688v9.854a1.888,1.888,0,0,1-1.962,1.792H3.943V16.542H20.621V6.688Z" transform="translate(0.208 0.833)" fill="#5c656b"/>
</svg>
