<svg id="phonelink_ring-24px" xmlns="http://www.w3.org/2000/svg" width="29" height="29" viewBox="0 0 29 29">
  <path id="Path_25" data-name="Path 25" d="M0,0H29V29H0Z" fill="none"/>
  <path id="Path_26" data-name="Path 26" d="M23.871,9.1,22.663,10.3a5.542,5.542,0,0,1,0,7.854l1.208,1.208a6.953,6.953,0,0,0,0-10.271Zm-2.538,2.538-1.208,1.208a2.357,2.357,0,0,1,0,2.779l1.208,1.208A3.646,3.646,0,0,0,21.333,11.633ZM16.5,1H4.417A2.424,2.424,0,0,0,2,3.417v21.75a2.424,2.424,0,0,0,2.417,2.417H16.5a2.424,2.424,0,0,0,2.417-2.417V3.417A2.424,2.424,0,0,0,16.5,1Zm0,22.958H4.417V4.625H16.5Z" transform="translate(0.417 0.208)" fill="none" stroke="#fff" stroke-width="1"/>
</svg>
