<svg id="attach_money-24px" xmlns="http://www.w3.org/2000/svg" width="60" height="60" viewBox="0 0 60 60">
  <path id="Path_64" data-name="Path 64" d="M0,0H60V60H0Z" fill="none"/>
  <path id="Path_65" data-name="Path 65" d="M22.76,21.433c-6.81-1.377-9-2.8-9-5.017,0-2.543,3.03-4.317,8.1-4.317,5.34,0,7.32,1.983,7.5,4.9h6.63c-.21-4.013-3.36-7.7-9.63-8.89V3h-9V8.04c-5.82.98-10.5,3.92-10.5,8.423,0,5.39,5.73,8.073,14.1,9.637,7.5,1.4,9,3.453,9,5.623,0,1.61-1.47,4.177-8.1,4.177-6.18,0-8.61-2.147-8.94-4.9H6.32c.36,5.11,5.28,7.98,11.04,8.937V45h9V39.983c5.85-.863,10.5-3.5,10.5-8.283C36.86,25.073,29.57,22.81,22.76,21.433Z" transform="translate(7.152 6)" fill="#5c656b"/>
</svg>
